<svg viewBox="0 0 28 58" fill="none" xmlns="http://www.w3.org/2000/svg">
<path d="M1.83712 46.0093C0.236615 46.6805 -0.434047 48.5908 0.288245 50.1397L2.81807 55.4053C3.54088 56.9026 5.29627 57.5737 6.84515 56.9026C11.182 55.0439 14.8998 52.6173 17.9454 49.7261C21.6116 46.2153 24.1409 42.2399 25.4838 37.8514C26.8261 33.5151 27.4968 27.474 27.4968 19.7296L27.4968 3.87943C27.4968 2.17567 26.1028 0.781685 24.3991 0.781685L4.10881 0.781683C2.40504 0.781683 1.01106 2.17567 1.01106 3.87943L1.01106 24.1697C1.01106 25.874 2.40504 27.2674 4.1088 27.2674L13.8667 27.2674C13.7634 32.4825 12.5238 36.6639 10.2527 39.8138C8.39402 42.3431 5.60605 44.4083 1.83712 46.0093Z" fill="currentColor"/>
</svg>
