<svg viewBox="0 0 8 8" fill="none" xmlns="http://www.w3.org/2000/svg">
<path d="M4.93909 3.99943L7.80299 1.14179C8.06415 0.880587 8.06415 0.457099 7.80299 0.1959C7.54183 -0.0652999 7.1184 -0.0652999 6.85724 0.1959L4 3.06021L1.14276 0.1959C0.881599 -0.0652999 0.458171 -0.0652999 0.197009 0.1959C-0.0641539 0.457099 -0.0641539 0.880587 0.197009 1.14179L3.06091 3.99943L0.197009 6.85708C0.0709219 6.98215 0 7.15241 0 7.33002C0 7.50763 0.0709219 7.67789 0.197009 7.80296C0.322065 7.92907 0.492298 8 0.669885 8C0.847472 8 1.0177 7.92907 1.14276 7.80296L4 4.93866L6.85724 7.80296C6.9823 7.92907 7.15253 8 7.33012 8C7.5077 8 7.67793 7.92907 7.80299 7.80296C7.92908 7.67789 8 7.50763 8 7.33002C8 7.15241 7.92908 6.98215 7.80299 6.85708L4.93909 3.99943Z" fill="currentColor"/>
</svg>
