<svg viewBox="0 0 18 18" fill="none" xmlns="http://www.w3.org/2000/svg">
<path fill-rule="evenodd" clip-rule="evenodd" d="M9 15.75C12.7279 15.75 15.75 12.7279 15.75 9C15.75 5.27208 12.7279 2.25 9 2.25C5.27208 2.25 2.25 5.27208 2.25 9C2.25 12.7279 5.27208 15.75 9 15.75ZM11.1804 5.32831C10.8958 5.16615 10.531 5.26388 10.3656 5.5466L8.78184 8.25409L7.20836 5.63813C7.02421 5.33198 6.62505 5.23022 6.3168 5.41083C6.00856 5.59143 5.90795 5.98603 6.0921 6.29218L7.7952 9.12363H6.94592C6.60718 9.12363 6.33258 9.39823 6.33258 9.73697C6.33258 10.0757 6.60718 10.3503 6.94592 10.3503H8.21348V10.7592H6.94592C6.60718 10.7592 6.33258 11.0338 6.33258 11.3725C6.33258 11.7113 6.60718 11.9859 6.94592 11.9859H8.21348V12.5992C8.21348 12.938 8.48808 13.2126 8.82682 13.2126C9.16556 13.2126 9.44016 12.938 9.44016 12.5992V11.9859H10.626C10.9647 11.9859 11.2393 11.7113 11.2393 11.3725C11.2393 11.0338 10.9647 10.7592 10.626 10.7592H9.44016V10.3503H10.626C10.9647 10.3503 11.2393 10.0757 11.2393 9.73697C11.2393 9.39824 10.9647 9.12363 10.626 9.12363H9.64728L11.3962 6.13385C11.5616 5.85113 11.465 5.49047 11.1804 5.32831Z" fill="currentColor"/>
</svg>
